<?xml version="1.0" encoding="UTF-8"?>
<svg width="251px" height="63px" viewBox="0 0 251 63" version="1.1" xmlns="http://www.w3.org/2000/svg" xmlns:xlink="http://www.w3.org/1999/xlink">
    <title>Group 73</title>
    <defs>
        <polygon id="path-1" points="-1.42108547e-14 0 8.885 0 8.885 14.0347 -1.42108547e-14 14.0347"></polygon>
        <polygon id="path-3" points="0 7.10542736e-15 25.5258 7.10542736e-15 25.5258 18.835 0 18.835"></polygon>
        <polygon id="path-5" points="0 0 26.1966 0 26.1966 23.081 0 23.081"></polygon>
        <polygon id="path-7" points="0 0 30.0278 0 30.0278 32.378 0 32.378"></polygon>
    </defs>
    <g id="Page-1" stroke="none" stroke-width="1" fill="none" fill-rule="evenodd">
        <g id="Group-73">
            <path d="M88.1178,25.1771 C88.1178,23.5581 87.5288,22.5761 86.6948,21.9381 C85.7128,21.2021 84.3388,20.9571 82.2778,20.9571 L73.9338,20.9571 L73.9338,29.9371 L82.1798,29.9371 C84.0938,29.9371 85.7618,29.6431 86.8418,28.5631 C87.6278,27.7781 88.1178,26.6491 88.1178,25.1771 L88.1178,25.1771 Z M73.9338,16.1471 L81.3938,16.1471 C83.3568,16.1471 84.5838,15.5571 85.3698,14.7721 C86.1058,13.9871 86.4978,12.9071 86.4978,11.6311 C86.4978,10.0601 85.9098,8.9811 85.1238,8.3921 C84.1428,7.6071 82.5718,7.4101 80.8538,7.4101 L73.9338,7.4101 L73.9338,16.1471 Z M94.1548,25.4721 C94.1548,28.1711 93.2218,30.4771 91.5048,32.0981 C89.5418,33.9621 86.5468,34.9441 82.3268,34.9441 L70.9888,34.9441 C69.3698,34.9441 68.0448,33.6191 68.0448,31.9991 L68.0448,5.3491 C68.0448,3.7291 69.3698,2.4041 70.9888,2.4041 L81.3448,2.4041 C84.8788,2.4041 87.5778,3.0421 89.5418,4.6131 C91.2588,6.0361 92.2898,8.0481 92.2898,10.6501 C92.2898,13.5941 91.0628,16.0971 89.0018,17.5701 C92.2898,18.8461 94.1548,21.6441 94.1548,25.4721 L94.1548,25.4721 Z" id="Fill-1" fill="#8D4189"></path>
            <path d="M101.37,32.5881 C99.8,30.9691 99.064,29.0051 99.064,26.3061 L99.064,13.5941 C99.064,12.0721 100.291,10.8451 101.812,10.8451 C103.334,10.8451 104.61,12.0721 104.61,13.5941 L104.61,25.9131 C104.61,27.4351 104.904,28.4651 105.689,29.1031 C106.475,29.7901 107.849,30.0851 109.468,30.0851 L109.567,30.0851 C111.481,30.0851 113.444,29.7421 114.671,29.1521 C115.014,29.0051 115.162,28.7601 115.162,28.3181 L115.162,13.5941 C115.162,12.0721 116.389,10.8451 117.91,10.8451 C119.432,10.8451 120.708,12.0721 120.708,13.5941 L120.708,32.3431 C120.708,33.8641 119.432,35.0911 117.91,35.0911 C116.683,35.0911 115.652,34.3051 115.26,33.2261 L114.278,33.7171 C112.217,34.7471 110.352,35.3361 108.683,35.3361 L108.634,35.3361 C105.591,35.3361 102.99,34.2571 101.37,32.5881" id="Fill-3" fill="#8D4189"></path>
            <path d="M127.089,32.3428 L127.089,13.5948 C127.089,12.0728 128.316,10.8458 129.838,10.8458 C131.212,10.8458 132.39,11.8278 132.586,13.1528 L133.47,12.6618 C136.12,11.1888 137.936,10.6008 139.359,10.6008 C141.322,10.6008 142.353,11.7288 142.353,13.1038 C142.353,14.5758 141.469,15.3618 139.605,15.6558 C137.101,16.0488 134.844,16.4408 133.077,16.9808 C132.684,17.1278 132.635,17.3248 132.635,17.7178 L132.635,32.3428 C132.635,33.8638 131.359,35.0908 129.838,35.0908 C128.316,35.0908 127.089,33.8638 127.089,32.3428" id="Fill-5" fill="#8D4189"></path>
            <path d="M161.103,20.6619 C160.808,17.7659 158.747,15.4599 155.164,15.4599 L155.115,15.4599 C151.532,15.4599 149.421,17.7169 149.078,20.6619 L161.103,20.6619 Z M143.336,22.9679 C143.336,15.4099 148.734,10.5999 155.066,10.5999 L155.164,10.5999 C161.79,10.5999 166.697,15.6559 166.697,22.0859 C166.697,23.9499 165.912,24.6869 164.342,24.6869 L149.029,24.6869 C149.323,28.0729 151.434,30.3309 155.802,30.3309 C157.618,30.3309 159.826,29.7419 161.642,29.0049 C162.526,28.6619 163.213,28.4159 163.851,28.4159 C164.98,28.4159 165.912,29.2019 165.912,30.5759 C165.912,31.5079 165.372,32.3919 164.047,33.1769 C161.74,34.5519 158.55,35.3359 155.458,35.3359 L155.311,35.3359 C147.998,35.3359 143.336,29.8889 143.336,22.9679 L143.336,22.9679 Z" id="Fill-7" fill="#8D4189"></path>
            <path d="M171.557,32.3428 L171.557,13.5948 C171.557,12.0728 172.784,10.8458 174.306,10.8458 C175.533,10.8458 176.612,11.6808 176.956,12.7598 L177.938,12.2208 C179.95,11.1408 181.962,10.6008 183.68,10.6008 L183.729,10.6008 C186.772,10.6008 189.374,11.6808 190.993,13.3488 C192.564,14.9688 193.3,16.9318 193.3,19.6318 L193.3,32.3428 C193.3,33.8638 192.024,35.0908 190.503,35.0908 C188.981,35.0908 187.754,33.8638 187.754,32.3428 L187.754,20.0238 C187.754,18.5028 187.459,17.4718 186.674,16.8338 C185.888,16.1468 184.514,15.8518 182.895,15.8518 L182.796,15.8518 C180.882,15.8518 178.821,16.1958 177.594,16.7838 C177.25,16.9318 177.103,17.1778 177.103,17.6188 L177.103,32.3428 C177.103,33.8638 175.827,35.0908 174.306,35.0908 C172.784,35.0908 171.557,33.8638 171.557,32.3428" id="Fill-9" fill="#8D4189"></path>
            <path d="M209.939,30.134 C211.509,30.134 213.865,29.545 215.239,28.858 C215.73,28.613 215.779,28.465 215.779,28.023 L215.779,17.816 C215.779,17.423 215.73,17.177 215.239,16.981 C213.522,16.294 211.509,15.803 209.939,15.803 L209.84,15.803 C205.669,15.803 203.558,18.208 203.558,23.018 C203.558,27.68 205.325,30.134 209.84,30.134 L209.939,30.134 Z M197.865,23.018 C197.865,16.049 202.38,10.6 208.712,10.6 C210.724,10.6 212.442,11.14 214.454,12.171 L215.779,12.858 L215.779,2.748 C215.779,1.227 217.006,0 218.528,0 C220.049,0 221.325,1.227 221.325,2.748 L221.325,32.343 C221.325,33.864 220.049,35.091 218.528,35.091 C217.202,35.091 216.123,34.207 215.828,32.981 L214.601,33.668 C212.785,34.699 210.822,35.336 208.859,35.336 C202.38,35.336 197.865,30.379 197.865,23.018 L197.865,23.018 Z" id="Fill-11" fill="#8D4189"></path>
            <path d="M238.356,30.134 C242.774,30.134 244.639,27.386 244.639,22.968 C244.639,18.551 242.774,15.803 238.356,15.803 L238.161,15.803 C233.743,15.803 231.879,18.551 231.879,22.968 C231.879,27.386 233.743,30.134 238.161,30.134 L238.356,30.134 Z M226.185,22.968 C226.185,14.87 231.976,10.6 238.161,10.6 L238.356,10.6 C244.54,10.6 250.332,14.87 250.332,22.968 C250.332,31.066 244.54,35.336 238.356,35.336 L238.161,35.336 C231.976,35.336 226.185,31.066 226.185,22.968 L226.185,22.968 Z" id="Fill-13" fill="#8D4189"></path>
            <path d="M72.5676,56.8725 L72.5676,46.4755 L68.9296,46.4755 C68.5086,46.4755 68.2016,46.1685 68.2016,45.7475 C68.2016,45.3255 68.5086,45.0005 68.9296,45.0005 L77.9676,45.0005 C78.3886,45.0005 78.7136,45.3255 78.7136,45.7475 C78.7136,46.1685 78.3886,46.4755 77.9676,46.4755 L74.3486,46.4755 L74.3486,56.8725 C74.3486,57.3705 73.9456,57.7525 73.4486,57.7525 C72.9506,57.7525 72.5676,57.3705 72.5676,56.8725" id="Fill-15" fill="#8D4189"></path>
            <path d="M82.5981,56.279 C84.4171,56.279 85.4321,55.129 85.4321,53.024 C85.4321,50.917 84.4171,49.768 82.5981,49.768 L82.5411,49.768 C80.7221,49.768 79.7071,50.917 79.7071,53.024 C79.7071,55.129 80.7221,56.279 82.5411,56.279 L82.5981,56.279 Z M77.9651,53.024 C77.9651,50.075 80.0321,48.199 82.5411,48.199 L82.5981,48.199 C85.1061,48.199 87.1751,50.075 87.1751,53.024 C87.1751,55.972 85.1061,57.849 82.5981,57.849 L82.5411,57.849 C80.0321,57.849 77.9651,55.972 77.9651,53.024 L77.9651,53.024 Z" id="Fill-17" fill="#8D4189"></path>
            <g id="Group-21" transform="translate(88.664800, 48.199100)">
                <mask id="mask-2" fill="white">
                    <use xlink:href="#path-1"></use>
                </mask>
                <g id="Clip-20"></g>
                <path d="M6.989,7.448 C7.161,7.352 7.199,7.275 7.199,7.065 L7.199,2.585 C7.199,2.355 7.161,2.278 6.97,2.182 C6.223,1.799 5.323,1.55 4.538,1.55 C2.776,1.55 1.742,2.604 1.742,4.844 C1.742,7.16 2.776,8.099 4.442,8.099 C5.285,8.099 6.338,7.812 6.989,7.448 M1.685,13.518 C1.302,13.326 1.149,13.058 1.149,12.79 C1.149,12.407 1.417,12.1 1.895,12.1 C2.049,12.1 2.221,12.139 2.432,12.196 C3.274,12.426 3.887,12.522 4.461,12.522 C5.265,12.522 5.993,12.35 6.453,11.928 C7.008,11.43 7.199,10.741 7.199,9.631 L7.199,8.654 L6.663,8.941 C5.706,9.458 4.997,9.65 4.155,9.65 C1.685,9.65 -1.42108547e-14,7.696 -1.42108547e-14,4.863 C-1.42108547e-14,1.761 2.125,0 4.232,0 C5.074,0 5.821,0.248 6.721,0.708 L7.199,0.957 L7.199,0.937 C7.199,0.478 7.582,0.095 8.042,0.095 C8.502,0.095 8.885,0.478 8.885,0.937 L8.885,9.65 C8.885,11.163 8.502,12.235 7.755,12.943 C6.97,13.69 5.783,14.035 4.481,14.035 C3.408,14.035 2.336,13.843 1.685,13.518" id="Fill-19" fill="#8D4189" mask="url(#mask-2)"></path>
            </g>
            <path d="M106.794,52.1617 C106.679,50.7067 105.683,49.7107 104.132,49.7107 C102.601,49.7107 101.528,50.6107 101.356,52.1617 L106.794,52.1617 Z M100.992,56.6037 C100.111,55.7227 99.614,54.4597 99.614,53.0237 C99.614,50.1327 101.586,48.1987 104.113,48.1987 C106.66,48.1987 108.46,50.1707 108.46,52.6217 C108.46,53.2157 108.211,53.4637 107.675,53.4637 L101.375,53.4637 C101.452,54.3257 101.777,55.0537 102.294,55.5707 C102.773,56.0487 103.481,56.3177 104.343,56.3177 C105.147,56.3177 105.875,56.1067 106.832,55.5897 C107.158,55.4167 107.33,55.3407 107.541,55.3407 C107.923,55.3407 108.192,55.5897 108.192,55.9727 C108.192,56.2787 108.077,56.5087 107.541,56.8917 C106.794,57.4277 105.549,57.8487 104.381,57.8487 C102.811,57.8487 101.777,57.3897 100.992,56.6037 L100.992,56.6037 Z" id="Fill-22" fill="#8D4189"></path>
            <path d="M111.654,57.1785 C111.118,56.6615 110.888,55.9915 110.888,54.9005 L110.888,49.6725 L109.72,49.6725 C109.357,49.6725 109.05,49.3855 109.05,49.0215 C109.05,48.6575 109.357,48.3515 109.72,48.3515 L110.888,48.3515 L110.888,46.2455 C110.888,45.7855 111.271,45.4025 111.731,45.4025 C112.19,45.4025 112.573,45.7855 112.573,46.2455 L112.573,48.3515 L115.311,48.3515 C115.675,48.3515 115.962,48.6575 115.962,49.0215 C115.962,49.3855 115.675,49.6725 115.311,49.6725 L112.573,49.6725 L112.573,54.8805 C112.573,55.4365 112.65,55.7615 112.86,56.0105 C113.052,56.2405 113.378,56.3745 113.856,56.3745 C114.297,56.3745 114.794,56.2405 115.407,56.0685 C115.618,56.0105 115.733,55.9915 115.847,55.9915 C116.211,55.9915 116.498,56.2405 116.498,56.6235 C116.498,56.9485 116.307,57.1975 115.847,57.4085 C115.273,57.6765 114.488,57.8485 113.741,57.8485 C112.841,57.8485 112.095,57.5995 111.654,57.1785" id="Fill-24" fill="#8D4189"></path>
            <path d="M118.086,56.9109 L118.086,44.9049 C118.086,44.4459 118.468,44.0629 118.928,44.0629 C119.387,44.0629 119.77,44.4459 119.77,44.9049 L119.77,49.0789 L120.192,48.8689 C120.919,48.5049 121.819,48.1989 122.643,48.1989 C123.753,48.1989 124.73,48.5619 125.362,49.1749 C125.955,49.7489 126.281,50.5339 126.281,51.7979 L126.281,56.9109 C126.281,57.3699 125.898,57.7529 125.438,57.7529 C124.979,57.7529 124.596,57.3699 124.596,56.9109 L124.596,51.8749 C124.596,51.0129 124.443,50.6109 124.117,50.2849 C123.753,49.9219 123.102,49.7879 122.356,49.7879 L122.336,49.7879 C121.513,49.7879 120.517,50.0179 119.943,50.3039 C119.79,50.3809 119.77,50.4579 119.77,50.6109 L119.77,56.9109 C119.77,57.3699 119.387,57.7529 118.928,57.7529 C118.468,57.7529 118.086,57.3699 118.086,56.9109" id="Fill-26" fill="#8D4189"></path>
            <path d="M135.391,52.1617 C135.277,50.7067 134.281,49.7107 132.73,49.7107 C131.198,49.7107 130.126,50.6107 129.954,52.1617 L135.391,52.1617 Z M129.59,56.6037 C128.709,55.7227 128.211,54.4597 128.211,53.0237 C128.211,50.1327 130.183,48.1987 132.711,48.1987 C135.258,48.1987 137.057,50.1707 137.057,52.6217 C137.057,53.2157 136.809,53.4637 136.272,53.4637 L129.973,53.4637 C130.049,54.3257 130.375,55.0537 130.892,55.5707 C131.37,56.0487 132.079,56.3177 132.94,56.3177 C133.745,56.3177 134.472,56.1067 135.43,55.5897 C135.755,55.4167 135.927,55.3407 136.138,55.3407 C136.521,55.3407 136.789,55.5897 136.789,55.9727 C136.789,56.2787 136.674,56.5087 136.138,56.8917 C135.391,57.4277 134.147,57.8487 132.979,57.8487 C131.409,57.8487 130.375,57.3897 129.59,56.6037 L129.59,56.6037 Z" id="Fill-28" fill="#8D4189"></path>
            <path d="M139.199,56.9109 L139.199,49.1359 C139.199,48.6769 139.581,48.2939 140.041,48.2939 C140.5,48.2939 140.883,48.6769 140.883,49.1359 L140.883,49.2319 L141.305,49.0219 C142.492,48.4279 143.201,48.1989 143.756,48.1989 C144.388,48.1989 144.675,48.5429 144.675,48.9459 C144.675,49.4239 144.368,49.6729 143.832,49.7489 C142.569,49.9219 141.688,50.1519 141.056,50.3809 C140.903,50.4389 140.883,50.5149 140.883,50.6879 L140.883,56.9109 C140.883,57.3699 140.5,57.7529 140.041,57.7529 C139.581,57.7529 139.199,57.3699 139.199,56.9109" id="Fill-30" fill="#8D4189"></path>
            <path d="M143.754,60.0312 C143.754,59.9172 143.793,59.8212 143.907,59.5722 L144.673,58.0212 C144.75,57.8682 144.75,57.7722 144.597,57.6182 L144.405,57.4472 C144.118,57.1972 143.945,56.9302 143.945,56.5662 C143.945,55.9342 144.444,55.5512 144.96,55.5512 C145.592,55.5512 146.109,56.0302 146.109,56.9672 C146.109,57.6572 145.592,58.7862 144.769,59.9552 C144.539,60.2802 144.386,60.3952 144.156,60.3952 C143.926,60.3952 143.754,60.2422 143.754,60.0312" id="Fill-32" fill="#8D4189"></path>
            <path d="M153.153,56.9109 L153.153,49.1359 C153.153,48.6769 153.536,48.2939 153.996,48.2939 C154.455,48.2939 154.838,48.6769 154.838,49.1359 L154.838,56.9109 C154.838,57.3699 154.455,57.7529 153.996,57.7529 C153.536,57.7529 153.153,57.3699 153.153,56.9109 M152.942,45.7289 C152.942,45.1349 153.402,44.6559 153.996,44.6559 C154.589,44.6559 155.048,45.1349 155.048,45.7289 C155.048,46.3219 154.589,46.7809 153.996,46.7809 C153.402,46.7809 152.942,46.3219 152.942,45.7289" id="Fill-34" fill="#8D4189"></path>
            <path d="M158.589,57.1785 C158.053,56.6615 157.824,55.9915 157.824,54.9005 L157.824,49.6725 L156.655,49.6725 C156.292,49.6725 155.985,49.3855 155.985,49.0215 C155.985,48.6575 156.292,48.3515 156.655,48.3515 L157.824,48.3515 L157.824,46.2455 C157.824,45.7855 158.206,45.4025 158.666,45.4025 C159.125,45.4025 159.508,45.7855 159.508,46.2455 L159.508,48.3515 L162.247,48.3515 C162.61,48.3515 162.898,48.6575 162.898,49.0215 C162.898,49.3855 162.61,49.6725 162.247,49.6725 L159.508,49.6725 L159.508,54.8805 C159.508,55.4365 159.585,55.7615 159.796,56.0105 C159.987,56.2405 160.313,56.3745 160.791,56.3745 C161.232,56.3745 161.73,56.2405 162.342,56.0685 C162.553,56.0105 162.668,55.9915 162.783,55.9915 C163.146,55.9915 163.434,56.2405 163.434,56.6235 C163.434,56.9485 163.242,57.1975 162.783,57.4085 C162.208,57.6765 161.423,57.8485 160.676,57.8485 C159.776,57.8485 159.03,57.5995 158.589,57.1785" id="Fill-36" fill="#8D4189"></path>
            <path d="M164.274,49.424 C164.274,49.309 164.312,49.213 164.427,48.965 L165.194,47.413 C165.27,47.26 165.27,47.164 165.117,47.011 L164.925,46.839 C164.638,46.59 164.466,46.322 164.466,45.958 C164.466,45.326 164.963,44.943 165.481,44.943 C166.112,44.943 166.629,45.422 166.629,46.36 C166.629,47.05 166.112,48.179 165.289,49.347 C165.059,49.672 164.906,49.787 164.676,49.787 C164.447,49.787 164.274,49.634 164.274,49.424" id="Fill-38" fill="#8D4189"></path>
            <path d="M167.759,57.3127 C167.414,57.1407 167.222,56.8917 167.222,56.5657 C167.222,56.1827 167.49,55.9337 167.892,55.9337 C168.065,55.9337 168.218,55.9727 168.467,56.0487 C169.348,56.2987 169.941,56.4507 170.822,56.4507 C171.933,56.4507 172.852,56.0107 172.852,54.9767 C172.852,54.3257 172.45,54.0577 171.32,53.7127 L169.941,53.2917 C168.027,52.6977 167.108,52.0467 167.108,50.6877 C167.108,49.8837 167.49,49.2517 168.103,48.8497 C168.792,48.3897 169.807,48.1987 170.899,48.1987 C171.875,48.1987 172.833,48.3517 173.388,48.5617 C173.848,48.7347 174.001,48.9647 174.001,49.2707 C174.001,49.6727 173.694,49.9217 173.273,49.9217 C173.158,49.9217 173.005,49.9027 172.813,49.8647 C171.952,49.6727 171.32,49.5957 170.688,49.5957 C169.463,49.5957 168.696,49.9217 168.696,50.6307 C168.696,51.3197 169.367,51.5487 170.286,51.8367 L171.607,52.2387 C172.545,52.5257 173.292,52.8317 173.732,53.2157 C174.211,53.6367 174.46,54.2297 174.46,54.9767 C174.46,55.7617 174.173,56.4127 173.675,56.8917 C173.024,57.5047 171.952,57.8487 170.65,57.8487 C169.482,57.8487 168.352,57.6187 167.759,57.3127" id="Fill-40" fill="#8D4189"></path>
            <path d="M188.146,53.0236 C188.146,50.5536 186.998,49.7686 185.485,49.7686 C184.623,49.7686 183.589,50.0756 182.938,50.4386 C182.804,50.5156 182.728,50.5726 182.728,50.8026 L182.728,55.2636 C182.728,55.4936 182.804,55.5516 182.938,55.6276 C183.589,55.9916 184.585,56.2986 185.447,56.2986 C186.978,56.2986 188.146,55.5516 188.146,53.0236 M181.043,61.2946 L181.043,49.1366 C181.043,48.6776 181.425,48.2946 181.885,48.2946 C182.345,48.2946 182.728,48.6776 182.728,49.1366 L182.728,49.2326 L183.225,48.9646 C184.183,48.4466 184.987,48.1986 185.791,48.1986 C188.108,48.1986 189.889,50.0946 189.889,53.0236 C189.889,55.9146 188.223,57.8486 185.753,57.8486 C184.93,57.8486 184.164,57.6186 183.264,57.1406 L182.728,56.8536 L182.728,61.2946 C182.728,61.7556 182.345,62.1376 181.885,62.1376 C181.425,62.1376 181.043,61.7556 181.043,61.2946" id="Fill-42" fill="#8D4189"></path>
            <path d="M195.994,56.279 C197.813,56.279 198.827,55.129 198.827,53.024 C198.827,50.917 197.813,49.768 195.994,49.768 L195.936,49.768 C194.117,49.768 193.103,50.917 193.103,53.024 C193.103,55.129 194.117,56.279 195.936,56.279 L195.994,56.279 Z M191.36,53.024 C191.36,50.075 193.428,48.199 195.936,48.199 L195.994,48.199 C198.502,48.199 200.57,50.075 200.57,53.024 C200.57,55.972 198.502,57.849 195.994,57.849 L195.936,57.849 C193.428,57.849 191.36,55.972 191.36,53.024 L191.36,53.024 Z" id="Fill-44" fill="#8D4189"></path>
            <path d="M202.654,57.3127 C202.31,57.1407 202.118,56.8917 202.118,56.5657 C202.118,56.1827 202.385,55.9337 202.788,55.9337 C202.961,55.9337 203.113,55.9727 203.363,56.0487 C204.243,56.2987 204.836,56.4507 205.718,56.4507 C206.828,56.4507 207.747,56.0107 207.747,54.9767 C207.747,54.3257 207.345,54.0577 206.215,53.7127 L204.836,53.2917 C202.922,52.6977 202.003,52.0467 202.003,50.6877 C202.003,49.8837 202.385,49.2517 202.998,48.8497 C203.688,48.3897 204.703,48.1987 205.794,48.1987 C206.77,48.1987 207.728,48.3517 208.283,48.5617 C208.743,48.7347 208.896,48.9647 208.896,49.2707 C208.896,49.6727 208.589,49.9217 208.168,49.9217 C208.053,49.9217 207.9,49.9027 207.709,49.8647 C206.847,49.6727 206.215,49.5957 205.583,49.5957 C204.358,49.5957 203.593,49.9217 203.593,50.6307 C203.593,51.3197 204.262,51.5487 205.182,51.8367 L206.503,52.2387 C207.441,52.5257 208.188,52.8317 208.628,53.2157 C209.107,53.6367 209.356,54.2297 209.356,54.9767 C209.356,55.7617 209.069,56.4127 208.57,56.8917 C207.919,57.5047 206.847,57.8487 205.545,57.8487 C204.377,57.8487 203.247,57.6187 202.654,57.3127" id="Fill-46" fill="#8D4189"></path>
            <path d="M211.057,57.3127 C210.713,57.1407 210.521,56.8917 210.521,56.5657 C210.521,56.1827 210.789,55.9337 211.191,55.9337 C211.364,55.9337 211.516,55.9727 211.766,56.0487 C212.646,56.2987 213.24,56.4507 214.121,56.4507 C215.231,56.4507 216.151,56.0107 216.151,54.9767 C216.151,54.3257 215.748,54.0577 214.618,53.7127 L213.24,53.2917 C211.326,52.6977 210.406,52.0467 210.406,50.6877 C210.406,49.8837 210.789,49.2517 211.401,48.8497 C212.091,48.3897 213.106,48.1987 214.197,48.1987 C215.174,48.1987 216.131,48.3517 216.687,48.5617 C217.146,48.7347 217.299,48.9647 217.299,49.2707 C217.299,49.6727 216.993,49.9217 216.572,49.9217 C216.457,49.9217 216.303,49.9027 216.112,49.8647 C215.25,49.6727 214.618,49.5957 213.987,49.5957 C212.761,49.5957 211.996,49.9217 211.996,50.6307 C211.996,51.3197 212.665,51.5487 213.585,51.8367 L214.906,52.2387 C215.844,52.5257 216.591,52.8317 217.031,53.2157 C217.51,53.6367 217.759,54.2297 217.759,54.9767 C217.759,55.7617 217.472,56.4127 216.973,56.8917 C216.322,57.5047 215.25,57.8487 213.948,57.8487 C212.78,57.8487 211.651,57.6187 211.057,57.3127" id="Fill-48" fill="#8D4189"></path>
            <path d="M219.69,56.9109 L219.69,49.1359 C219.69,48.6769 220.072,48.2939 220.532,48.2939 C220.992,48.2939 221.374,48.6769 221.374,49.1359 L221.374,56.9109 C221.374,57.3699 220.992,57.7529 220.532,57.7529 C220.072,57.7529 219.69,57.3699 219.69,56.9109 M219.479,45.7289 C219.479,45.1349 219.939,44.6559 220.532,44.6559 C221.126,44.6559 221.585,45.1349 221.585,45.7289 C221.585,46.3219 221.126,46.7809 220.532,46.7809 C219.939,46.7809 219.479,46.3219 219.479,45.7289" id="Fill-50" fill="#8D4189"></path>
            <path d="M231.176,53.0236 C231.176,50.5536 230.028,49.7686 228.515,49.7686 C227.653,49.7686 226.62,50.0756 225.969,50.4386 C225.834,50.5156 225.758,50.5726 225.758,50.8026 L225.758,55.2636 C225.758,55.4936 225.834,55.5516 225.969,55.6276 C226.62,55.9916 227.615,56.2986 228.477,56.2986 C229.989,56.2986 231.176,55.5516 231.176,53.0236 M226.294,57.1406 L225.758,56.8536 L225.758,56.9106 C225.758,57.3706 225.375,57.7526 224.915,57.7526 C224.456,57.7526 224.073,57.3706 224.073,56.9106 L224.073,44.9046 C224.073,44.4456 224.456,44.0626 224.915,44.0626 C225.375,44.0626 225.758,44.4456 225.758,44.9046 L225.758,49.2326 L226.255,48.9646 C227.175,48.4666 228.017,48.1986 228.821,48.1986 C231.138,48.1986 232.919,50.0946 232.919,53.0236 C232.919,55.9146 231.272,57.8486 228.783,57.8486 C227.959,57.8486 227.194,57.6186 226.294,57.1406" id="Fill-52" fill="#8D4189"></path>
            <path d="M235.022,56.9109 L235.022,44.9049 C235.022,44.4459 235.405,44.0629 235.864,44.0629 C236.324,44.0629 236.707,44.4459 236.707,44.9049 L236.707,56.9109 C236.707,57.3699 236.324,57.7529 235.864,57.7529 C235.405,57.7529 235.022,57.3699 235.022,56.9109" id="Fill-54" fill="#8D4189"></path>
            <path d="M245.973,52.1617 C245.858,50.7067 244.862,49.7107 243.311,49.7107 C241.78,49.7107 240.707,50.6107 240.535,52.1617 L245.973,52.1617 Z M240.171,56.6037 C239.29,55.7227 238.793,54.4597 238.793,53.0237 C238.793,50.1327 240.765,48.1987 243.292,48.1987 C245.839,48.1987 247.638,50.1707 247.638,52.6217 C247.638,53.2157 247.39,53.4637 246.854,53.4637 L240.554,53.4637 C240.631,54.3257 240.956,55.0537 241.473,55.5707 C241.952,56.0487 242.661,56.3177 243.522,56.3177 C244.326,56.3177 245.054,56.1067 246.011,55.5897 C246.337,55.4167 246.509,55.3407 246.72,55.3407 C247.102,55.3407 247.371,55.5897 247.371,55.9727 C247.371,56.2787 247.256,56.5087 246.72,56.8917 C245.973,57.4277 244.728,57.8487 243.56,57.8487 C241.99,57.8487 240.956,57.3897 240.171,56.6037 L240.171,56.6037 Z" id="Fill-56" fill="#8D4189"></path>
            <path d="M26.1478,18.9545 L26.9908,18.9545 C34.6568,18.9545 40.2628,21.2455 43.8648,25.0585 C44.2498,23.4955 44.4568,21.8355 44.4568,20.0875 L44.4568,20.0865 C44.4568,9.7675 37.8798,2.3345 24.6378,2.3345 L6.3758,2.3345 C19.1238,2.3345 25.6758,9.2325 26.1478,18.9545" id="Fill-58" fill="#2C9ED9"></path>
            <g id="Group-62" transform="translate(0.000000, 18.954100)">
                <mask id="mask-4" fill="white">
                    <use xlink:href="#path-3"></use>
                </mask>
                <g id="Clip-61"></g>
                <path d="M25.5258,6.461 C21.9418,2.431 16.2228,7.10542736e-15 8.3178,7.10542736e-15 L2.8818,7.10542736e-15 C1.2488,7.10542736e-15 -0.0002,1.346 -0.0002,2.882 L-0.0002,18.835 L6.3788,18.835 C17.1868,18.835 23.5508,13.855 25.5258,6.461" id="Fill-60" fill="#8D4189" mask="url(#mask-4)"></path>
            </g>
            <path d="M26.9932,18.9545 L26.1502,18.9545 C26.1692,19.3305 26.1962,19.7025 26.1962,20.0865 L26.1962,20.0875 C26.1962,21.9635 25.9692,23.7535 25.5262,25.4145 C26.1002,26.0615 26.6022,26.7555 27.0662,27.4815 C27.2242,27.7275 27.3892,27.9685 27.5352,28.2235 C27.6262,28.3855 27.7042,28.5565 27.7902,28.7215 C27.9862,29.0925 28.1782,29.4655 28.3472,29.8525 C28.3902,29.9515 28.4262,30.0545 28.4672,30.1545 C28.6642,30.6255 28.8452,31.1045 29.0042,31.5985 L29.0422,31.7275 C29.5892,33.4635 29.9022,35.3335 29.9872,37.3105 C37.7102,35.8915 42.3282,31.3105 43.8712,25.0625 C40.2692,21.2465 34.6622,18.9545 26.9932,18.9545" id="Fill-63" fill="#1A55A5"></path>
            <g id="Group-67" transform="translate(0.000000, 2.334500)">
                <mask id="mask-6" fill="white">
                    <use xlink:href="#path-5"></use>
                </mask>
                <g id="Clip-66"></g>
                <path d="M2.8816,16.62 L8.3186,16.62 C16.2226,16.62 21.9416,19.051 25.5256,23.081 C25.9706,21.417 26.1966,19.633 26.1966,17.753 L26.1966,17.752 C26.1966,7.433 19.6196,0 6.3786,0 L2.5096,0 C1.1236,0 -0.0004,1.124 -0.0004,2.51 L-0.0004,19.502 C-0.0004,17.965 1.2486,16.62 2.8816,16.62" id="Fill-65" fill="#E0539D" mask="url(#mask-6)"></path>
            </g>
            <path d="M43.8712,25.0628 C42.3282,31.3098 37.7102,35.8908 29.9872,37.3108 C30.0032,37.6728 30.0282,38.0318 30.0282,38.4008 L30.0282,38.4018 C30.0282,49.6098 22.8232,57.7858 8.3182,57.7858 L26.9932,57.7858 C41.4982,57.7858 48.7032,49.6098 48.7032,38.4018 L48.7032,38.4008 C48.7032,33.0738 47.0812,28.4638 43.8712,25.0628" id="Fill-68" fill="#EE5A74"></path>
            <g id="Group-72" transform="translate(0.000000, 25.415100)">
                <mask id="mask-8" fill="white">
                    <use xlink:href="#path-7"></use>
                </mask>
                <g id="Clip-71"></g>
                <path d="M25.5258,0 C23.5508,7.394 17.1868,12.374 6.3788,12.374 L-0.0002,12.374 L-0.0002,29.497 C-0.0002,31.033 1.2488,32.378 2.8818,32.378 L8.3178,32.378 C22.8238,32.378 30.0278,24.194 30.0278,12.987 L30.0278,12.986 C30.0278,7.842 28.5188,3.365 25.5258,0" id="Fill-70" fill="#CFCF45" mask="url(#mask-8)"></path>
            </g>
        </g>
    </g>
</svg>