<?xml version="1.0" encoding="UTF-8"?>
<svg width="29px" height="34px" viewBox="0 0 29 34" version="1.1" xmlns="http://www.w3.org/2000/svg" xmlns:xlink="http://www.w3.org/1999/xlink">
    <title>Group</title>
    <defs>
        <polygon id="path-1" points="0 0 15.5607 0 15.5607 13.71 0 13.71"></polygon>
    </defs>
    <g id="Page-1" stroke="none" stroke-width="1" fill="none" fill-rule="evenodd">
        <g id="Group" transform="translate(0.000000, 0.387200)">
            <path d="M15.5318,9.872 L16.0328,9.872 C20.5858,9.872 23.9158,11.233 26.0558,13.498 C26.2838,12.569 26.4068,11.583 26.4068,10.545 L26.4068,10.544 C26.4068,4.415 22.5008,0 14.6348,0 L3.7868,0 C11.3598,0 15.2518,4.097 15.5318,9.872" id="Fill-59" fill="#2C9ED9"></path>
            <path d="M15.1623,13.7095 C13.0333,11.3155 9.6363,9.8715 4.9413,9.8715 L1.7113,9.8715 C0.7423,9.8715 0.0003,10.6705 0.0003,11.5835 L0.0003,21.0595 L3.7883,21.0595 C10.2093,21.0595 13.9893,18.1015 15.1623,13.7095" id="Fill-61" fill="#8D4189"></path>
            <path d="M16.034,9.872 L15.533,9.872 C15.544,10.095 15.561,10.316 15.561,10.545 L15.561,10.545 C15.561,11.659 15.426,12.722 15.162,13.709 C15.504,14.094 15.802,14.505 16.077,14.937 C16.171,15.083 16.269,15.226 16.356,15.378 C16.41,15.474 16.456,15.576 16.508,15.674 C16.624,15.894 16.738,16.116 16.839,16.346 C16.864,16.404 16.885,16.465 16.91,16.525 C17.026,16.804 17.134,17.089 17.229,17.382 L17.251,17.459 C17.576,18.49 17.762,19.601 17.813,20.775 C22.4,19.932 25.143,17.211 26.06,13.5 C23.92,11.234 20.589,9.872 16.034,9.872" id="Fill-63" fill="#1A55A5"></path>
            <g id="Group-67">
                <mask id="mask-2" fill="white">
                    <use xlink:href="#path-1"></use>
                </mask>
                <g id="Clip-66"></g>
                <path d="M1.7117,9.872 L4.9407,9.872 C9.6367,9.872 13.0337,11.316 15.1627,13.71 C15.4267,12.721 15.5607,11.661 15.5607,10.545 L15.5607,10.545 C15.5607,4.415 11.6547,0 3.7887,0 L1.4907,0 C0.6677,0 -0.0003,0.667 -0.0003,1.491 L-0.0003,11.584 C-0.0003,10.671 0.7417,9.872 1.7117,9.872" id="Fill-65" fill="#E0539D" mask="url(#mask-2)"></path>
            </g>
            <path d="M26.0595,13.5003 C25.1435,17.2113 22.3995,19.9323 17.8125,20.7753 C17.8215,20.9913 17.8365,21.2033 17.8365,21.4233 L17.8365,21.4233 C17.8365,28.0813 13.5575,32.9383 4.9415,32.9383 L16.0335,32.9383 C24.6505,32.9383 28.9295,28.0813 28.9295,21.4233 L28.9295,21.4233 C28.9295,18.2583 27.9665,15.5203 26.0595,13.5003" id="Fill-68" fill="#EE5A74"></path>
            <path d="M15.1623,13.7095 C13.9893,18.1015 10.2093,21.0595 3.7883,21.0595 L0.0003,21.0595 L0.0003,31.2305 C0.0003,32.1435 0.7423,32.9425 1.7113,32.9425 L4.9413,32.9425 C13.5573,32.9425 17.8363,28.0805 17.8363,21.4235 L17.8363,21.4235 C17.8363,18.3675 16.9403,15.7085 15.1623,13.7095" id="Fill-70" fill="#CFCF45"></path>
        </g>
    </g>
</svg>