<svg height="95" viewBox="0 0 100 95" width="100" xmlns="http://www.w3.org/2000/svg"><g fill="#fff" transform="translate(0 .446429)"><path d="m9.91071429 2.78571429v2.58035714c1.26785711-.1875 2.07142861.27678571 3.27678571.48214286.3928571.0625.8303571.09821428 1.3392857.08035714.1696429-.00892857.3482143-.01785714.5357143-.04464286.0357143 0 .0625.02678572.0625.0625-.0178571.16071429-.125.58035714-.2321429 1.00892857-.0982142.40178572-.2946428.61607143-.5535714.78571429-.0714286.04464286-.1428571.08035714-.2142857.09821428-1.4732143.42857143-2.7142857-.72321428-4.22321429-.26785714v3.58928573h6.24107139v1.1071428c0 .6517858-.5267857 1.1875-1.1875 1.1875h-7.66071424v-12.96428567h8.85714284v1.10714286c0 .65178571-.5267857 1.1875-1.1875 1.1875zm29.37500001 10.66964281h1.1071428c.8303572 0 1.5089286-.6696428 1.5089286-1.5089285v-11.45535717h-2.6160714zm13.5089286-4.92857139c-1.9910715-3.25-3.4464286-3.5-5.4375-8.04464285h-2.3303572v12.97321424h.9910714c.8392858 0 1.5089286-.6785714 1.5089286-1.5178571-.0089286-1.7589286-.0267857-3.91964286-.0357143-6.50892857 1.9910715 3.23214286 3.4553572 3.48214286 5.4464286 8.01785717h2.3125c0-4.3214286 0-8.64285717 0-12.97321431h-2.5089286c.0178572 1.98214285.0357143 4.66071428.0535715 8.05357142zm5.5892857 4.92857139h1.1071428c.8303572 0 1.5089286-.6696428 1.5089286-1.5089285v-11.45535717h-2.6160714zm5.7410714-12.96428567v12.97321427h1.1071429c.8303571 0 1.5089285-.6696428 1.5089285-1.5089286v-4.31249996-1.14285714-6.00892857zm2.875 5.72321428c-.3571429.50892858-.3482143 1.17857143.0089286 1.67857143l.0535714.07142857 4.0803571 5.48214289h3.1875l-4.7589285-5.98214289c-.2410715-.30357142-.25-.74107142-.0267857-1.05357142l4.3035714-5.92857143h-2.75zm7.0625.86607143c0 3.48214286 2.8125 6.62499996 6.7946429 6.62499996 3.9732142 0 6.8482142-3.0535714 6.8482142-6.74999996 0-3.6875-2.9017857-6.74107143-6.8303571-6.74107143-3.6160714 0-6.8125 2.6875-6.8125 6.84821429zm2.6160714-.13392857c0-2.28571428 1.6160715-4.42857143 4.2142857-4.42857143 2.6517858 0 4.1964286 2.28571429 4.1964286 4.46428572 0 2.14285714-1.5446428 4.42857144-4.1785714 4.42857144-2.5267857 0-4.2321429-2.07142859-4.2321429-4.44642859zm20.8125 1.57142857c-1.9910714-3.25-3.4553571-3.50892857-5.4464285-8.0625h-2.3392858v12.99999996h.9910715c.8392857 0 1.5089285-.6785714 1.5089285-1.5178571-.0089285-1.7589286-.0267857-3.92857143-.0357142-6.52678571 2 3.24107142 3.4642857 3.49107142 5.4642857 8.03571431h2.3214285c0-4.33035717 0-8.66964289 0-13.00000003h-2.5089285c.0089285 1.98214286.0267857 4.66964286.0446428 8.07142857zm-97.4910714 1.32142857v3.59821429h.65178571v-1.4017857h3.88392858v-.7946429h-3.88392858v-1.40178569zm0-4.74107142v.78571428h1.32142857c.30357143 0 .54464286.24107143.54464286.54464286v1.09821428c0 .30357143-.24107143.54464286-.54464286.54464286h-1.32142857v.78571429h4.53571429v-.78571429h-2.00892858v-2.19642857h2.00892858v-.78571429h-4.53571429zm3.88392857-4.61607143v2.48214285h-1.36607143v-2.25892857h-.625v2.25892857h-1.24107143v-2.46428571h-.65178571v3.23214286h4.53571429v-3.25zm15.33928573.0625v12.97321424h5.7946428c.8303572 0 1.5089286-.6696428 1.5089286-1.5089285v-.7946429h-4.6875v-10.66964284zm10.0089286 0v12.97321424h5.7946428c.8303572 0 1.5089286-.6696428 1.5089286-1.5089285v-.7946429h-4.6875v-10.66964284z" transform="translate(0 66.553571)"/><g transform="translate(0 84.375)"><path d="m1.16964286 7.91071429h4.08035714v.94642857h-5.23214286v-7.95535715h5.14285715v.94642858h-3.99107143v2.49107142h3.6875v.94642858h-3.6875z"/><path d="m12.875 8.85714286h-1.3214286l-2.22321426-3.25-2.24107143 3.25h-1.32142857l2.91071429-4.10714286-2.6875-3.84821429h1.32142857l2 2.95535715 2-2.95535715h1.3214286l-2.67857146 3.83928572z"/><path d="m19.5625 3.39285714c0 1.53571429-1.0892857 2.57142857-2.7232143 2.57142857h-1.875v2.89285715h-1.1517857v-7.95535715h3.0535714c1.625 0 2.6964286 1 2.6964286 2.49107143zm-2.8214286 1.625c1.0089286 0 1.6339286-.63392857 1.6339286-1.58928571 0-.94642857-.6428571-1.58035714-1.6339286-1.58035714h-1.7678571v3.16964285z"/><path d="m21.9732143 7.91071429h4.0803571v.94642857h-5.2232143v-7.95535715h5.1428572v.94642858h-3.9910714v2.49107142h3.6875v.94642858h-3.6875v2.625z"/><path d="m34.0178571 8.85714286h-1.3392857l-1.9821428-3.09821429h-.0982143-1.8571429v3.09821429h-1.1517857v-7.95535715h3.1339286c1.6339286 0 2.7232143.96428572 2.7232143 2.42857143 0 1.0625-.5982143 1.875-1.5892857 2.22321429zm-5.2767857-7.00892857v2.96428571h1.7767857c1.0446429 0 1.7321429-.58928571 1.7321429-1.48214286 0-.89285714-.6696429-1.48214285-1.6696429-1.48214285z"/><path d="m35.1696429 8.85714286v-7.95535715h1.1517857v7.95535715z"/><path d="m39.4285714 7.91071429h4.0803572v.94642857h-5.2232143v-7.95535715h5.1428571v.94642858h-3.9910714v2.49107142h3.6875v.94642858h-3.6875v2.625z"/><path d="m45.0446429 8.85714286v-7.95535715h.7232142l5.2946429 6-.0357143-6h1.1517857v7.95535715h-.7232143l-5.2767857-6 .0178572 6z"/><path d="m53.625 4.85714286c0-2.4375 1.6428571-4.0625 4.1071429-4.0625 1.3035714 0 2.3125.46428571 3.0625 1.29464285l-.7232143.73214286c-.5089286-.625-1.2946429-1.07142857-2.3125-1.07142857-1.7767857 0-2.9464286 1.25-2.9464286 3.11607143 0 1.89285714 1.1875 3.16071428 2.9375 3.16071428 1.1428571 0 1.9642857-.52678571 2.5089286-1.33035714l.7857143.71428572c-.7410715.99107142-1.8839286 1.57142857-3.3035715 1.57142857-2.4553571-.01785715-4.1160714-1.66071429-4.1160714-4.125z"/><path d="m63.4017857 7.91071429h4.0803572v.94642857h-5.2232143v-7.95535715h5.1428571v.94642858h-3.9910714v2.49107142h3.6875v.94642858h-3.6875v2.625z"/><path d="m77.4375 3.39285714c0 1.53571429-1.0892857 2.57142857-2.7232143 2.57142857h-1.875v2.89285715h-1.1428571v-7.95535715h3.0535714c1.6071429 0 2.6875 1 2.6875 2.49107143zm-2.8303571 1.625c1.0089285 0 1.6339285-.63392857 1.6339285-1.58928571 0-.94642857-.6428571-1.58035714-1.6339285-1.58035714h-1.7678572v3.16964285z"/><path d="m83.8571429 8.85714286-.7767858-1.84821429h-3.9553571l-.7857143 1.84821429h-1.2232143l3.4553572-7.95535715h1.0625l3.4375 7.95535715zm-4.3303572-2.79464286h3.1607143l-1.5803571-3.75z"/><path d="m92.4464286 8.85714286h-1.3482143l-1.9821429-3.09821429h-.0982143-1.8571428v3.09821429h-1.1517857v-7.95535715h3.1339285c1.6339286 0 2.7232143.96428572 2.7232143 2.42857143 0 1.0625-.5982143 1.875-1.5892857 2.22321429zm-5.2767857-7.00892857v2.96428571h1.7767857c1.0446428 0 1.7321428-.58928571 1.7321428-1.48214286 0-.89285714-.6696428-1.48214285-1.6696428-1.48214285z"/><path d="m98.625 8.85714286-2.7678571-3.58928572h-1.1071429v3.58928572h-1.1517857v-7.95535715h1.1517857v3.41071429h1.0982143l2.6607143-3.41071429h1.375l-3.0535715 3.875 3.1696429 4.08928572h-1.375z"/></g><path d="m17.7857143 58.3571429v-58.3571429h64.3839286v58.3571429zm6.1964286-5.7142858h16.0892857l-.5625-.7232142c-1.7410715-2.2232143-4.0892857-5.4285715-5.4107143-8.0714286-.375-.75-.7321429-1.5446429-1.1071429-2.3571429-1.7946428-3.9642857-3.8392857-8.4642857-8.4553571-9.6071428l-.5535714-.1339286zm-.0089286-27.4196428.3928571.0446428c1.5089286.1785715 2.9017857.5535715 4.1607143 1.125 3.9464286 1.7857143 5.4642857 4.8482143 7.7589286 9.4821429 1.9375 3.9196429 4.3482143 8.8035714 9.0267857 13.875.875.9464286 1.7946429 1.875 2.7589286 2.75l.125.1160714h10.7678571l-1.2589286-.8214285c-2.7857142-1.8214286-5.3482142-3.9910715-7.6160714-6.4553572-4.0446428-4.3928571-6.1339286-8.625-7.9821428-12.3571428-2.4910715-5.0357143-4.8392858-9.7857143-10.9107143-12.5267858-2.0892857-.9464285-4.3571429-1.5267857-6.75-1.7410714l-.4821429-.0446428v6.5535714zm0-16.07142859v3.24107139l.4375.0089286c1.4017857.0267857 2.7946428.1964286 4.1517857.4910714 1.6071429.3571429 5.8214286 1.5803572 10.2142857 5.3125 4.7142857 4 6.9464286 8.5535715 9.3214286 13.3839286 2.5982143 5.2946429 5.2857143 10.7678572 11.25 15.2857143 3.9107143 2.9642857 7.5803571 4.2678571 9.9732143 4.8482143 1.9553571.4732143 3.9821428.7142857 6.0089285.7142857l.5625-.0178571.0892858-.4375v-6.0535715l-.6428572.0089286c-1.5178571 0-3.0267857-.1785714-4.4910714-.5267857-1.7946429-.4285714-4.5625-1.4285714-7.5714286-3.7053572-4.7321428-3.5803571-6.9642857-8.1339285-9.3392857-12.9642857-2.5625-5.2142857-5.2053571-10.5982143-10.9464286-15.4821428-5.3125-4.5089286-10.4375-6.14285717-13.0267857-6.71428574-1.7946428-.39285715-3.6428571-.61607143-5.4910714-.64285715l-.4464286-.00892857zm19.0535714-2.61607142c1.8571429 1.20535714 3.625 2.57142857 5.2589286 4.06250001 5.4910714 5.0357143 7.7857143 10.0446428 9.8035714 14.4553571 2.3035714 5.0446429 4.4821429 9.8035715 10.4642857 12.6696429 2.1160715 1.0178571 4.4464286 1.6517857 6.9375 1.8839286l.4910715.0446428v-6.7946428l-.4375-.0089286c-5.5267858-.1071429-10.0178572-4.6964286-10.0178572-10.2142857 0-5.5178572 4.4910714-10.1071429 10.0178572-10.2232143l.4375-.0089286v-6.49999999l-.4553572.00892858c-6.4642857.08035714-12.2321428 3.84821428-14.9375 9.66071431-2.1785714-3.7053572-4.6964286-6.81250003-7.875-9.73214289l-.1339286-.125h-10.8214285z"/></g></svg>